<?xml version="1.0" encoding="UTF-8"?>
<svg width="166px" height="80px" viewBox="0 0 166 80" version="1.1" xmlns="http://www.w3.org/2000/svg" xmlns:xlink="http://www.w3.org/1999/xlink">
    <!-- Generator: Sketch 59.1 (86144) - https://sketch.com -->
    <title>Logos/3rd Party/appletv</title>
    <desc>Created with Sketch.</desc>
    <g id="Logos/3rd-Party/appletv" stroke="none" stroke-width="1" fill="none" fill-rule="evenodd">
        <g id="Logos/appletv" fill="#000000">
            <g id="apple-tv-plus-logo@logotyp.us-copy" transform="translate(0.000000, 0.000000)">
                <path d="M43.5238095,12.7216931 C46.4285714,9.14708995 47.8137566,4.58888889 47.4116402,0.0312169312 C42.9428571,0.477777778 38.7873016,2.62275132 35.8380952,6.01904762 C32.8888889,9.32592593 31.3693122,13.6603175 31.6820106,18.084127 C36.1952381,18.262963 40.6195767,16.2518519 43.5238095,12.7216931 M47.3222222,18.7989418 C40.8873016,18.3968254 35.3910053,22.4634921 32.4417989,22.4634921 C29.4925926,22.4634921 24.6666667,18.9777778 19.5275132,19.0671958 C12.7354497,19.2460317 6.56878307,23.0444444 3.35132275,28.9873016 C-3.61957672,40.962963 1.51957672,58.8375661 8.31164021,68.4 C11.573545,73.3603175 15.5058201,78.3206349 20.7343915,78.3206349 C25.9624339,78.3206349 27.5708995,75.147619 33.5592593,75.147619 C39.5470899,75.147619 41.2449735,78.3206349 46.4730159,78.2312169 C51.7015873,78.1417989 55.231746,73.2708995 58.4936508,68.578836 C60.8174603,65.1830688 62.6047619,61.4291005 63.8560847,57.4968254 C57.510582,54.6814815 53.4439153,48.3809524 53.4888889,41.4544974 C53.5783069,35.3772487 56.7957672,29.7470899 61.9793651,26.5746032 C58.6724868,21.8825397 53.3550265,18.9777778 47.6349206,18.7989418" id="Shape"></path>
                <path d="M98.1301587,12.4539683 L98.1301587,24.831746 L108.050265,24.831746 L108.050265,33.3666667 L98.1301587,33.3666667 L98.1301587,62.4121693 C98.1301587,66.9253968 100.096296,69.0259259 104.520106,69.0259259 C105.726455,69.0259259 106.88836,68.9365079 108.094709,68.757672 L108.094709,77.2481481 C106.128571,77.605291 104.117989,77.784127 102.106878,77.7396825 C91.4269841,77.7396825 87.226455,73.7179894 87.226455,63.5296296 L87.226455,33.5005291 L79.7195767,33.5005291 L79.7195767,24.831746 L87.3608466,24.831746 L87.3608466,12.4539683 L98.1301587,12.4539683 L98.1301587,12.4539683 Z M144.379894,77.605291 L132.850794,77.605291 L113.814815,24.831746 L125.343386,24.831746 L138.57037,66.9253968 L151.97619,24.831746 L163.281481,24.831746 L144.379894,77.605291 Z" id="Shape"></path>
            </g>
        </g>
    </g>
</svg>