<svg xmlns="http://www.w3.org/2000/svg" viewBox="0 0 190 80"><g fill="#38CE7F" fill-rule="evenodd"><path fill-rule="nonzero" d="M116.943 1.007h14.678v77.482h-14.678z"/><path d="M.98 1.007h14.58V26.79a9.255 9.255 0 014.709-1.04h11.268c8.791.036 15.91 7.154 15.945 15.945V78.49H32.869V47.152a4.871 4.871 0 00-4.839-4.839h-7.534a4.871 4.871 0 00-4.936 4.839v31.337H.98V1.007zm103.98 24.647v36.858c-.018 8.803-7.14 15.94-15.945 15.977H74.76c-8.804-.036-15.927-7.174-15.945-15.977V25.654h14.678v31.922a4.871 4.871 0 004.839 4.936h7.111a4.871 4.871 0 004.806-4.969V25.654h14.711zm84.788 0v36.858c-.017 8.803-7.14 15.94-15.944 15.977h-14.288c-8.804-.036-15.927-7.174-15.945-15.977V25.654h14.678v31.922a4.871 4.871 0 004.839 4.936h7.111a4.871 4.871 0 004.839-4.839V25.654h14.71z"/></g></svg>